<?xml version="1.0" encoding="UTF-8" standalone="no"?><svg viewBox="0 0 229.7 229.7" xmlns="http://www.w3.org/2000/svg" xmlns:xlink="http://www.w3.org/1999/xlink"><style>:root>svg{display:none}:root>svg:target{display:block}</style><svg viewBox="0 0 16 16" id="pointLeft" xmlns="http://www.w3.org/2000/svg"><path class="t" d="M10.1 15.7L2.8 8.4c-.2-.2-.2-.3-.2-.5s.1-.3.2-.4L10.1.2c.1-.1.2-.2.4-.2s.3.1.4.2l1.6 1.6c.1.1.2.3.2.4 0 .2-.1.3-.2.4L7.3 7.9l5.2 5.2c.1.1.2.3.2.4 0 .2-.1.3-.2.4l-1.6 1.6c-.1.1-.3.2-.4.2-.2.2-.3.1-.4 0z"/></svg><svg viewBox="0 0 16 16" id="pointRight" xmlns="http://www.w3.org/2000/svg"><path class="t" d="M5.5 15.9c-.2 0-.3-.1-.4-.2L3.4 14c-.1-.1-.2-.3-.2-.4 0-.2.1-.3.2-.4L8.6 8 3.4 2.7c-.1-.1-.2-.3-.2-.4 0-.2.1-.3.2-.4L5 .2c.2-.1.3-.2.5-.2s.3.1.4.2l7.3 7.3c.1.1.2.3.2.4 0 .2-.1.3-.2.4l-7.3 7.3c-.1.2-.2.3-.4.3z"/></svg>